<svg width="26" height="26" viewBox="0 0 26 26" fill="none" xmlns="http://www.w3.org/2000/svg">
<path fill-rule="evenodd" clip-rule="evenodd" d="M13 26C20.1797 26 26 20.1797 26 13C26 5.8203 20.1797 0 13 0C5.8203 0 0 5.8203 0 13C0 20.1797 5.8203 26 13 26Z" fill="#E18560"/>
<path d="M11.7871 17.9961C12.0977 17.9961 12.3379 17.8672 12.5078 17.6152L18.0156 9.03711C18.1387 8.84375 18.1914 8.67969 18.1914 8.52148C18.1914 8.10547 17.8985 7.81836 17.4766 7.81836C17.1895 7.81836 17.0137 7.92383 16.8379 8.19922L11.7578 16.2559L9.15041 12.9102C8.97463 12.6816 8.79299 12.5879 8.53518 12.5879C8.1133 12.5879 7.80862 12.8867 7.80862 13.2969C7.80862 13.4785 7.87307 13.6543 8.02541 13.8359L11.0606 17.6211C11.2656 17.8789 11.4824 17.9961 11.7871 17.9961Z" fill="white"/>
</svg>
