<svg width="61" height="63" viewBox="0 0 61 63" fill="none" xmlns="http://www.w3.org/2000/svg">
<path d="M0 12.486C0 8.06769 3.58172 4.48596 8 4.48596H61L32.635 31.8582L0 62.486V12.486Z" fill="#E18560"/>
<path d="M19 30.9102C24.4492 30.9102 28.9609 26.3984 28.9609 20.9492C28.9609 15.5098 24.4395 10.9883 18.9902 10.9883C13.5508 10.9883 9.03906 15.5098 9.03906 20.9492C9.03906 26.3984 13.5605 30.9102 19 30.9102ZM19 29.25C14.3906 29.25 10.709 25.5586 10.709 20.9492C10.709 16.3496 14.3809 12.6484 18.9902 12.6484C23.5996 12.6484 27.291 16.3496 27.3008 20.9492C27.3105 25.5586 23.6094 29.25 19 29.25ZM18.9121 17.4727C19.625 17.4727 20.1816 16.9062 20.1816 16.2031C20.1816 15.4902 19.625 14.9238 18.9121 14.9238C18.209 14.9238 17.6426 15.4902 17.6426 16.2031C17.6426 16.9062 18.209 17.4727 18.9121 17.4727ZM17.291 26.3203H21.2656C21.666 26.3203 21.9785 26.0371 21.9785 25.6367C21.9785 25.2559 21.666 24.9531 21.2656 24.9531H20.0547V19.9824C20.0547 19.4551 19.791 19.1035 19.293 19.1035H17.457C17.0566 19.1035 16.7441 19.4062 16.7441 19.7871C16.7441 20.1875 17.0566 20.4707 17.457 20.4707H18.502V24.9531H17.291C16.8906 24.9531 16.5781 25.2559 16.5781 25.6367C16.5781 26.0371 16.8906 26.3203 17.291 26.3203Z" fill="#F2F2F2"/>
</svg>
