<svg width="24" height="24" viewBox="0 0 24 24" fill="none" xmlns="http://www.w3.org/2000/svg">
<rect width="24" height="24" rx="2" fill="#E18560"/>
<g clip-path="url(#clip0)">
<path d="M18.846 8.292L16.1165 5.127L15.577 4.5H9.1285C8.263 4.5 7.5625 5.201 7.5625 6.067V8.059H8.5335L8.533 6.4485C8.534 5.9615 8.9255 5.5675 9.4115 5.5675L14.9265 5.5625V8.175C14.927 9.148 15.7135 9.936 16.687 9.936H18.596L18.502 17.473C18.501 17.958 18.108 18.349 17.623 18.3525L9.3425 18.349C8.8995 18.349 8.5425 17.9135 8.5405 17.378V16.741H7.5675V17.6915C7.5675 18.6485 8.208 19.425 8.9945 19.425L17.9065 19.422C18.7715 19.422 19.474 18.7175 19.474 17.8545V9.0215L18.846 8.292Z" fill="white"/>
<path d="M14.6065 17.2255H4.5V7.5735H14.6065V17.2255ZM5.471 16.2545H13.634V8.545H5.471" fill="white"/>
<path d="M13.0261 10.461L11.5491 14.9475H10.3231L9.47905 12.347L8.59405 14.9475H7.37205L5.99255 10.461H7.24905L8.05255 13.3605L9.03155 10.461H9.98705L10.8981 13.3605L11.7716 10.461H13.0261Z" fill="white"/>
</g>
<defs>
<clipPath id="clip0">
<rect x="4.5" y="4.5" width="15" height="15" rx="2" fill="white"/>
</clipPath>
</defs>
</svg>
