<svg xmlns="http://www.w3.org/2000/svg" width="100%" height="100%" fill="none" viewBox="0 0 224 224"><rect width="224" height="224" fill="#E18560" rx="20"/><path fill="#fff" d="M175.896 77.392l-25.475-29.54L145.385 42H85.199c-8.078 0-14.616 6.543-14.616 14.625v18.592h9.063l-.005-15.031c.01-4.545 3.664-8.223 8.2-8.223l51.473-.046V76.3c.005 9.081 7.345 16.436 16.431 16.436h17.818l-.878 70.345c-.009 4.527-3.677 8.176-8.204 8.209l-77.284-.033c-4.135 0-7.467-4.064-7.486-9.062v-5.946H70.63v8.872c0 8.932 5.978 16.179 13.319 16.179l83.178-.028c8.074 0 14.63-6.575 14.63-14.63V84.201l-5.861-6.809z"/><path fill="#fff" d="M136.327 160.771H42V70.686h94.327v90.085zm-85.264-9.062h76.188V79.753H51.063"/><path fill="#fff" d="M121.576 97.636l-13.785 41.874H96.348l-7.877-24.271-8.26 24.271H68.805L55.93 97.636h11.727l7.5 27.062 9.137-27.062h8.918l8.503 27.062 8.152-27.062h11.709z"/></svg>