<svg width="20" height="21" viewBox="0 0 20 21" fill="none" xmlns="http://www.w3.org/2000/svg">
<path d="M7 10.2629C6.31 10.2629 5.75 10.8326 5.75 11.5345C5.75 12.2364 6.31 12.806 7 12.806C7.69 12.806 8.25 12.2364 8.25 11.5345C8.25 10.8326 7.69 10.2629 7 10.2629ZM13 10.2629C12.31 10.2629 11.75 10.8326 11.75 11.5345C11.75 12.2364 12.31 12.806 13 12.806C13.69 12.806 14.25 12.2364 14.25 11.5345C14.25 10.8326 13.69 10.2629 13 10.2629ZM10 0.344826C4.48 0.344826 0 4.90207 0 10.5172C0 16.1324 4.48 20.6897 10 20.6897C15.52 20.6897 20 16.1324 20 10.5172C20 4.90207 15.52 0.344826 10 0.344826ZM10 18.6552C5.59 18.6552 2 15.0033 2 10.5172C2 10.2222 2.02 9.92724 2.05 9.64241C4.41 8.57431 6.28 6.61103 7.26 4.17983C9.07 6.78396 12.05 8.48276 15.42 8.48276C16.2 8.48276 16.95 8.3912 17.67 8.21827C17.88 8.94051 18 9.71362 18 10.5172C18 15.0033 14.41 18.6552 10 18.6552Z" fill="white"/>
</svg>
