<svg width="31" height="30" viewBox="0 0 31 30" fill="none" xmlns="http://www.w3.org/2000/svg">
<path d="M15.5 0C7.22 0 0.5 6.72 0.5 15C0.5 23.28 7.22 30 15.5 30C23.78 30 30.5 23.28 30.5 15C30.5 6.72 23.78 0 15.5 0ZM14 26.895C8.075 26.16 3.5 21.12 3.5 15C3.5 14.07 3.62 13.185 3.815 12.315L11 19.5V21C11 22.65 12.35 24 14 24V26.895ZM24.35 23.085C23.96 21.87 22.85 21 21.5 21H20V16.5C20 15.675 19.325 15 18.5 15H9.5V12H12.5C13.325 12 14 11.325 14 10.5V7.5H17C18.65 7.5 20 6.15 20 4.5V3.885C24.395 5.67 27.5 9.975 27.5 15C27.5 18.12 26.3 20.955 24.35 23.085Z" fill="black"/>
</svg>
