<svg width="20" height="21" viewBox="0 0 20 21" fill="none" xmlns="http://www.w3.org/2000/svg">
<path d="M10 20.9102C15.4492 20.9102 19.9609 16.3984 19.9609 10.9492C19.9609 5.50977 15.4395 0.988281 9.99023 0.988281C4.55078 0.988281 0.0390625 5.50977 0.0390625 10.9492C0.0390625 16.3984 4.56055 20.9102 10 20.9102ZM10 19.25C5.39062 19.25 1.70898 15.5586 1.70898 10.9492C1.70898 6.34961 5.38086 2.64844 9.99023 2.64844C14.5996 2.64844 18.291 6.34961 18.3008 10.9492C18.3105 15.5586 14.6094 19.25 10 19.25ZM9.91211 7.47266C10.625 7.47266 11.1816 6.90625 11.1816 6.20312C11.1816 5.49023 10.625 4.92383 9.91211 4.92383C9.20898 4.92383 8.64258 5.49023 8.64258 6.20312C8.64258 6.90625 9.20898 7.47266 9.91211 7.47266ZM8.29102 16.3203H12.2656C12.666 16.3203 12.9785 16.0371 12.9785 15.6367C12.9785 15.2559 12.666 14.9531 12.2656 14.9531H11.0547V9.98242C11.0547 9.45508 10.791 9.10352 10.293 9.10352H8.45703C8.05664 9.10352 7.74414 9.40625 7.74414 9.78711C7.74414 10.1875 8.05664 10.4707 8.45703 10.4707H9.50195V14.9531H8.29102C7.89062 14.9531 7.57812 15.2559 7.57812 15.6367C7.57812 16.0371 7.89062 16.3203 8.29102 16.3203Z" fill="#F2F2F2"/>
</svg>
