<svg width="206" height="206" viewBox="0 0 206 206" fill="none" xmlns="http://www.w3.org/2000/svg">
<path d="M103 206C159.885 206 206 159.885 206 103C206 46.1147 159.885 0 103 0C46.1147 0 0 46.1147 0 103C0 159.885 46.1147 206 103 206Z" fill="#E18560"/>
<path d="M47.4674 70.3023C45.8641 70.3509 40.8599 71.8085 36.633 73.6061C32.4061 75.4038 26.5759 79.3877 25.9929 79.9222C25.4099 80.4566 25.2156 80.991 26.1873 81.2825C27.159 81.574 39.1594 84.2948 41.8316 85.0236C44.5038 85.7038 46.7387 90.1736 46.8358 92.2141C46.933 94.2547 43.8236 96.3439 42.0745 97.3641C40.3255 98.433 35.1269 101.397 33.2807 101.494C31.483 101.591 31.3858 101.494 30.317 101.057C29.1995 100.619 26.6731 99.1618 26.6245 98.0443C26.5759 96.9269 28.0821 96.1981 29.0052 95.7608C29.9283 95.3236 39.0623 92.1656 39.791 91.7283C40.5198 91.291 40.2769 90.4165 39.4995 90.2707C38.7708 90.125 33.5236 89.2019 30.6571 88.5217C27.7906 87.8415 18.8509 86.724 18.8024 79.9707C18.7538 76.1325 19.9684 74.2863 23.8066 72.1972C27.5962 70.0594 34.5924 65.0552 43.775 63.8405C49.7023 63.0632 52.7632 65.1523 54.2207 67.2901C55.6783 69.4278 53.492 70.9825 51.8887 71.0311C50.334 71.1769 49.2651 70.2538 47.4674 70.3023ZM70.4481 72.683C63.3547 69.525 58.7391 72.9259 56.5042 77.3957C53.7835 82.8373 53.9778 89.542 58.8363 92.8457C62.0429 95.0321 69.8165 95.7608 73.1203 89.8821C76.4726 84.0033 77.5415 75.7924 70.4481 72.683ZM67.4844 85.0722C65.9297 87.5014 62.0429 89.0561 61.217 88.3759C60.0995 87.4042 60.6339 84.3434 62.2858 81.3311C63.8891 78.3189 67.8245 76.8613 68.8934 77.6387C70.0108 78.3674 68.7962 82.983 67.4844 85.0722ZM105.429 62.7717C105.381 61.9457 104.846 60.0509 100.814 60.1967C96.7811 60.3424 91.7769 64.4722 88.2302 70.108C84.6835 75.6953 82.4 82.0113 82.5943 86.724C82.7887 91.4368 86.8698 95.6151 92.2627 95.4207C97.6556 95.1778 104.166 88.8618 105.575 87.0641C106.984 85.2665 106.45 83.4689 105.526 82.5457C104.603 81.6226 102.757 81.3311 101.931 82.4486C101.105 83.566 99.6962 85.1207 96.6839 87.3071C93.6717 89.542 91.291 90.1736 90.4651 89.7363C87.8415 88.3759 90.125 81.6226 93.3802 76.084C96.6354 70.5453 102.077 66.0269 103.534 64.958C104.555 64.1321 105.429 63.549 105.429 62.7717ZM113.883 78.7075C114.223 82.1085 114.369 85.9467 115.389 87.7929C116.409 89.6391 118.353 90.8052 119.082 90.8052C119.81 90.7566 120.393 89.6877 120.831 87.6957C121.268 85.7038 121.268 79.242 121.025 73.7033C120.782 68.116 117.575 68.0674 115.924 68.0674C114.32 68.0674 112.96 69.3306 113.3 71.274C113.64 72.9259 113.543 75.258 113.883 78.7075ZM159.456 87.4528C159.164 85.8495 157.804 81.7198 155.763 76.1811C153.723 70.5939 151.05 65.541 149.739 62.966C148.427 60.391 147.115 58.6906 143.568 58.9821C140.022 59.2736 139.147 61.1684 138.03 63.5005C136.912 65.8325 135.649 68.2618 132.588 76.667C129.527 85.0722 127.681 91.5339 127.195 93.1372C126.418 95.858 127.098 97.4613 129.187 97.3641C131.276 97.267 132.394 95.5665 133.366 92.8943C134.337 90.2222 136.621 84.7806 136.621 84.7806C136.621 84.7806 138.904 84.5377 143.18 83.566C147.455 82.5943 150.322 81.7198 150.322 81.7198C150.322 81.7198 151.196 85.2665 152.022 87.4528C152.848 89.6391 154.84 90.9023 157.075 90.8052C159.31 90.6594 159.699 89.0561 159.456 87.4528ZM147.164 75.5495C146.289 75.9382 145.415 76.3269 143.034 77.0071C140.75 77.6873 139.147 78.2217 138.807 78.3674C138.467 78.5132 138.273 78.6589 138.418 78.3189C138.418 78.3189 142.208 68.116 142.548 67.2415C142.84 66.367 143.471 65.1038 144.346 66.4156C145.22 67.7273 147.309 73.1203 147.747 74.0434C148.135 74.9665 147.99 75.1608 147.164 75.5495ZM186.08 94.4976C187.246 93.7203 187.441 92.0684 186.712 90.7566C185.983 89.4448 184.088 89.542 182.776 90.125C181.465 90.708 175.78 92.9915 175.051 93.2344C174.323 93.4773 173.983 92.8943 173.885 92.2627C173.788 91.6797 173.448 88.3273 173.157 81.7684C172.865 75.258 172.768 71.274 172.622 66.7556C172.476 62.2372 171.699 59.4679 168.201 59.6137C164.703 59.7594 165.772 65.4439 165.917 70.8854C166.063 76.3269 166.986 89.6391 167.472 94.692C167.958 99.6962 170.97 100.474 173.351 100.376C176.217 100.231 184.914 95.275 186.08 94.4976Z" fill="white"/>
<path d="M46.6901 115.779C45.9613 115.779 45.2811 115.779 44.5523 115.73V121.755H43.2405V106.062C44.4066 106.013 45.767 106.013 46.9816 106.013C50.5283 106.013 51.9372 107.811 51.9372 110.823C51.9372 113.787 50.1882 115.779 46.6901 115.779ZM46.7872 107.131C46.1071 107.131 45.1839 107.131 44.6009 107.179V114.564C45.0868 114.564 45.7184 114.613 46.7387 114.613C49.6537 114.613 50.5769 113.058 50.5769 110.872C50.5769 108.637 49.8481 107.131 46.7872 107.131Z" fill="white"/>
<path d="M66.0268 121.754L64.958 118.11H58.8363L57.816 121.754H56.4556L61.0712 106.012H62.7717L67.3872 121.754H66.0268ZM61.8971 107.47L59.1278 117.041H64.6665L61.8971 107.47Z" fill="white"/>
<path d="M82.1085 121.754L78.2217 114.077H75.8896V121.754H74.5778V106.061C75.7924 106.012 77.0556 106.012 78.1731 106.012C81.7198 106.012 82.983 107.518 82.983 109.899C82.983 111.988 81.7684 113.543 79.5335 113.883L83.6146 121.754H82.1085ZM78.1245 107.13C77.3957 107.13 76.6184 107.13 75.9382 107.178V113.008H78.2217C80.6995 113.008 81.6712 111.745 81.6712 110.045C81.6226 108.247 80.9424 107.13 78.1245 107.13Z" fill="white"/>
<path d="M94.6434 107.178V121.754H93.3316V107.178H89.3476V106.012H98.6759V107.178H94.6434Z" fill="white"/>
<path d="M113.494 121.754L106.692 107.47V121.754H105.429V106.012H107.373L113.98 119.956V106.012H115.243V121.754H113.494Z" fill="white"/>
<path d="M123.892 121.754V106.012H130.791V107.13H125.252V113.057H130.305V114.175H125.252V120.588H130.888V121.705H123.892V121.754Z" fill="white"/>
<path d="M145.998 121.754L142.111 114.077H139.779V121.754H138.467V106.061C139.682 106.012 140.945 106.012 142.062 106.012C145.609 106.012 146.872 107.518 146.872 109.899C146.872 111.988 145.658 113.543 143.423 113.883L147.504 121.754H145.998ZM142.014 107.13C141.285 107.13 140.508 107.13 139.827 107.178V113.008H142.111C144.589 113.008 145.56 111.745 145.56 110.045C145.512 108.247 144.832 107.13 142.014 107.13Z" fill="white"/>
<path d="M158.241 121.851C157.075 121.851 155.666 121.511 154.451 120.782L154.889 119.762C155.958 120.296 156.978 120.685 158.241 120.685C160.33 120.685 161.448 119.567 161.448 117.818C161.448 113.786 154.306 114.32 154.306 109.753C154.306 107.518 155.86 105.915 158.581 105.915C159.844 105.915 161.205 106.304 162.176 106.887L161.691 107.81C160.865 107.421 159.65 107.033 158.581 107.033C156.589 107.033 155.617 108.101 155.617 109.608C155.617 113.397 162.759 112.814 162.759 117.673C162.711 120.248 161.059 121.851 158.241 121.851Z" fill="white"/>
<path d="M20.6972 134.532C21.183 134.434 21.8146 134.337 22.4948 134.337C23.4665 134.337 24.2439 134.629 24.6811 135.115C25.0212 135.503 25.167 135.989 25.167 136.621C25.167 137.592 24.6811 138.467 24.0981 138.953C23.4179 139.584 22.3491 139.876 21.3288 139.876C20.9887 139.876 20.6486 139.876 20.2599 139.779L19.4826 143.811H18.9481L20.6972 134.532ZM20.4543 139.244C20.8429 139.341 21.1344 139.341 21.4745 139.341C23.3208 139.341 24.5354 138.224 24.5354 136.669C24.5354 135.406 23.6609 134.872 22.3976 134.872C21.9118 134.872 21.5231 134.92 21.2802 134.969L20.4543 139.244Z" fill="white"/>
<path d="M25.3613 143.811L26.2359 139.293C26.3816 138.516 26.4788 137.738 26.576 137.107H27.159C27.1104 137.592 27.0132 138.078 26.916 138.613H26.9646C27.4019 137.69 28.0821 136.961 28.9566 136.961C29.0538 136.961 29.1995 136.961 29.2481 137.009L29.1024 137.641C29.0538 137.592 28.9566 137.592 28.8109 137.592C27.9849 137.592 26.916 138.856 26.576 140.556L25.9443 143.811H25.3613Z" fill="white"/>
<path d="M35.2726 139.779C35.2726 141.625 33.9123 144.006 31.7259 144.006C30.0741 144.006 29.2481 142.645 29.2481 141.285C29.2481 139.147 30.7542 137.009 32.7948 137.009C34.5925 136.961 35.2726 138.418 35.2726 139.779ZM29.9283 141.188C29.9283 142.451 30.6571 143.423 31.8231 143.423C33.3292 143.423 34.641 141.576 34.641 139.73C34.641 138.856 34.2038 137.447 32.7462 137.447C31.0943 137.495 29.9283 139.342 29.9283 141.188Z" fill="white"/>
<path d="M38.7222 135.358L38.3821 137.107H40.0826L39.9854 137.641H38.2849L37.5562 141.528C37.459 141.965 37.4104 142.305 37.4104 142.742C37.4104 143.18 37.6533 143.471 38.0906 143.471C38.3335 143.471 38.4793 143.423 38.625 143.423L38.6736 143.909C38.4793 143.957 38.2364 144.006 37.9448 144.006C37.0703 144.006 36.7302 143.374 36.7302 142.791C36.7302 142.402 36.7788 141.965 36.876 141.528L37.6048 137.69H36.5845L36.6816 137.155H37.7019L37.9934 135.6L38.7222 135.358Z" fill="white"/>
<path d="M44.601 143.423C44.2609 143.666 43.5807 143.957 42.5604 143.957C40.8599 143.957 40.2283 142.694 40.2283 141.333C40.2283 139.342 41.7345 136.961 43.7264 136.961C44.9411 136.961 45.4755 137.738 45.4755 138.516C45.4755 140.313 43.2892 140.702 40.9571 140.653C40.8599 140.993 40.9085 141.819 41.0543 142.305C41.2972 143.083 41.9288 143.471 42.6576 143.471C43.4835 143.471 44.0665 143.18 44.4066 142.985L44.601 143.423ZM43.6293 137.495C42.4147 137.495 41.3944 138.758 41.0543 140.07C43.0463 140.119 44.8439 139.827 44.8439 138.516C44.8439 137.835 44.3581 137.495 43.6293 137.495Z" fill="white"/>
<path d="M46.0099 145.706C46.4472 145.998 47.0302 146.192 47.8075 146.192C49.0222 146.192 49.9939 145.512 50.4797 143.423L50.7712 142.159H50.7226C50.091 143.325 49.1679 143.86 48.1476 143.86C46.7872 143.86 46.1556 142.694 46.1556 141.576C46.1556 139.244 47.8561 136.961 50.2854 136.961C50.9656 136.961 51.8401 137.204 52.2288 137.398L51.2085 142.937C50.917 144.492 50.5283 145.366 49.8967 145.949C49.2651 146.532 48.3905 146.678 47.7104 146.678C46.933 146.678 46.2042 146.483 45.8156 146.192L46.0099 145.706ZM51.5 137.787C51.2571 137.641 50.7226 137.495 50.1396 137.495C48.1476 137.495 46.8358 139.536 46.7873 141.431C46.7873 142.208 47.0302 143.325 48.2934 143.325C49.508 143.325 50.7226 141.771 50.9656 140.313L51.5 137.787Z" fill="white"/>
<path d="M53.2005 143.811L54.4637 137.107H55.0953L53.8321 143.811H53.2005ZM54.658 135.212C54.658 134.92 54.901 134.677 55.1925 134.677C55.5326 134.677 55.6783 134.92 55.6783 135.212C55.6297 135.503 55.484 135.746 55.1439 135.746C54.8038 135.746 54.658 135.503 54.658 135.212Z" fill="white"/>
<path d="M56.067 143.811L56.9901 138.904C57.1359 138.224 57.2331 137.641 57.2816 137.107H57.8647L57.6703 138.467H57.7189C58.3505 137.495 59.225 136.961 60.1482 136.961C61.1199 136.961 61.6543 137.592 61.7029 138.613C62.2859 137.592 63.1604 137.009 64.2779 136.961C64.9095 136.961 65.8812 137.35 65.8812 138.71C65.8812 139.05 65.8326 139.439 65.784 139.827L65.0066 143.811H64.375L65.1524 139.827C65.201 139.584 65.2496 139.196 65.2496 138.904C65.2496 138.03 64.9581 137.495 64.0349 137.495C63.0632 137.495 61.8972 138.516 61.6057 140.119L60.9255 143.811H60.2939L61.0713 139.73C61.1198 139.39 61.1684 139.147 61.1684 138.856C61.1684 138.224 61.0227 137.495 59.9052 137.495C58.9821 137.495 57.7189 138.71 57.4274 140.216L56.7472 143.811H56.067Z" fill="white"/>
<path d="M74.1892 143.811C74.1892 143.374 74.2378 142.645 74.3835 141.819H74.3349C73.5576 143.374 72.5859 143.957 71.517 143.957C70.351 143.957 69.6708 142.985 69.6708 141.819C69.6708 139.439 71.517 136.961 74.1892 136.961C74.7236 136.961 75.3552 137.058 75.7439 137.155L75.0637 140.653C74.8208 142.014 74.7236 143.131 74.7722 143.811H74.1892ZM75.0151 137.641C74.8694 137.592 74.5778 137.495 74.0434 137.495C72.0028 137.495 70.3024 139.439 70.3024 141.722C70.3024 142.548 70.5453 143.423 71.6628 143.423C72.8774 143.423 74.2378 141.819 74.5778 139.925L75.0151 137.641Z" fill="white"/>
<path d="M82.8859 146.581L83.6632 142.451H83.6147C83.0316 143.423 82.0599 144.006 81.1368 144.006C79.7279 144.006 79.1934 142.84 79.1934 141.625C79.1934 139.342 80.9911 137.009 83.2746 137.009C84.1491 137.009 84.8293 137.252 85.2179 137.447L83.4689 146.629H82.8859V146.581ZM84.5378 137.787C84.2948 137.641 83.809 137.495 83.226 137.495C81.4769 137.495 79.8736 139.244 79.8736 141.528C79.8736 142.694 80.408 143.423 81.234 143.423C82.5944 143.423 83.7604 141.917 84.0519 140.41L84.5378 137.787Z" fill="white"/>
<path d="M92.3113 137.107L91.3882 142.014C91.2425 142.694 91.1939 143.277 91.1453 143.811H90.5623L90.7566 142.451H90.708C90.1736 143.325 89.2505 144.006 88.3274 144.006C87.5986 144.006 86.5297 143.714 86.5297 142.014C86.5297 141.722 86.5783 141.382 86.6755 140.945L87.4042 137.155H88.0359L87.3071 140.993C87.2099 141.431 87.1613 141.722 87.1613 142.062C87.1613 142.937 87.5014 143.471 88.4731 143.471C89.3962 143.471 90.708 142.402 90.9995 140.848L91.6797 137.204H92.3113V137.107Z" fill="white"/>
<path d="M93.3316 143.811L94.5948 137.107H95.2264L93.9632 143.811H93.3316ZM94.7892 135.212C94.7892 134.92 95.0321 134.677 95.3236 134.677C95.6637 134.677 95.8094 134.92 95.8094 135.212C95.7608 135.503 95.6151 135.746 95.275 135.746C94.9349 135.746 94.7892 135.503 94.7892 135.212Z" fill="white"/>
<path d="M98.7245 143.811L99.6477 138.904C99.7934 138.224 99.8906 137.641 99.9392 137.107H100.522L100.328 138.467H100.376C101.008 137.495 101.883 136.961 102.806 136.961C103.777 136.961 104.312 137.592 104.36 138.613C104.943 137.592 105.818 137.009 106.935 136.961C107.567 136.961 108.539 137.35 108.539 138.71C108.539 139.05 108.49 139.439 108.442 139.827L107.664 143.811H107.033L107.81 139.827C107.859 139.584 107.907 139.196 107.907 138.904C107.907 138.03 107.616 137.495 106.692 137.495C105.721 137.495 104.555 138.516 104.263 140.119L103.486 143.811H102.854L103.632 139.73C103.68 139.39 103.729 139.147 103.729 138.856C103.729 138.224 103.583 137.495 102.466 137.495C101.542 137.495 100.279 138.71 99.9878 140.216L99.3076 143.811H98.7245Z" fill="white"/>
<path d="M114.175 143.423C113.834 143.666 113.154 143.957 112.134 143.957C110.433 143.957 109.802 142.694 109.802 141.333C109.802 139.341 111.308 136.961 113.3 136.961C114.515 136.961 115.049 137.738 115.049 138.516C115.049 140.313 112.863 140.702 110.531 140.653C110.433 140.993 110.482 141.819 110.628 142.305C110.871 143.083 111.502 143.471 112.231 143.471C113.057 143.471 113.64 143.18 113.98 142.985L114.175 143.423ZM113.203 137.495C111.988 137.495 110.968 138.758 110.628 140.07C112.62 140.119 114.417 139.827 114.417 138.516C114.369 137.835 113.883 137.495 113.203 137.495ZM115.195 134.337L113.3 136.281H112.766L114.175 134.337H115.195Z" fill="white"/>
<path d="M115.632 143.034C115.924 143.228 116.409 143.423 116.895 143.423C117.818 143.423 118.45 142.791 118.45 142.014C118.45 141.382 118.207 140.993 117.478 140.556C116.701 140.119 116.409 139.487 116.409 138.904C116.409 137.884 117.284 137.009 118.499 137.009C118.984 137.009 119.47 137.155 119.665 137.35L119.422 137.884C119.227 137.738 118.839 137.544 118.401 137.544C117.575 137.544 116.992 138.127 116.992 138.807C116.992 139.439 117.333 139.779 117.964 140.167C118.742 140.605 119.082 141.236 119.082 141.868C119.082 143.18 118.013 143.957 116.847 143.957C116.215 143.957 115.681 143.714 115.389 143.52L115.632 143.034Z" fill="white"/>
<path d="M123.066 143.811L124.96 133.9H125.592L124.669 138.516H124.717C125.301 137.544 126.175 136.961 127.292 136.961C127.875 136.961 128.944 137.301 128.944 138.758C128.944 139.147 128.896 139.536 128.847 139.827L128.07 143.811H127.438L128.216 139.779C128.264 139.536 128.313 139.244 128.313 138.807C128.313 138.078 127.973 137.495 127.05 137.495C126.029 137.495 124.669 138.661 124.377 140.265L123.697 143.811H123.066Z" fill="white"/>
<path d="M136.329 139.779C136.329 141.625 134.969 144.006 132.783 144.006C131.131 144.006 130.305 142.645 130.305 141.285C130.305 139.147 131.811 137.009 133.851 137.009C135.649 136.961 136.329 138.418 136.329 139.779ZM130.936 141.188C130.936 142.451 131.665 143.423 132.831 143.423C134.337 143.423 135.649 141.576 135.649 139.73C135.649 138.856 135.212 137.447 133.754 137.447C132.151 137.495 130.936 139.342 130.936 141.188Z" fill="white"/>
<path d="M139.779 143.811L140.702 138.904C140.848 138.224 140.945 137.641 140.993 137.107H141.576L141.382 138.564H141.431C142.014 137.592 142.985 136.961 144.006 136.961C144.589 136.961 145.658 137.301 145.658 138.856C145.658 139.147 145.609 139.536 145.512 139.925L144.783 143.811H144.151L144.929 139.827C144.977 139.536 145.026 139.196 145.026 138.904C145.026 138.127 144.686 137.495 143.763 137.495C142.791 137.495 141.382 138.564 141.091 140.362L140.41 143.811H139.779Z" fill="white"/>
<path d="M151.342 143.423C151.002 143.666 150.322 143.957 149.301 143.957C147.601 143.957 146.969 142.694 146.969 141.333C146.969 139.342 148.475 136.961 150.467 136.961C151.682 136.961 152.217 137.738 152.217 138.516C152.217 140.313 150.03 140.702 147.698 140.653C147.601 140.993 147.65 141.819 147.795 142.305C148.038 143.083 148.67 143.471 149.399 143.471C150.225 143.471 150.808 143.18 151.148 142.985L151.342 143.423ZM150.37 137.495C149.156 137.495 148.135 138.758 147.795 140.07C149.787 140.119 151.585 139.827 151.585 138.516C151.585 137.835 151.05 137.495 150.37 137.495Z" fill="white"/>
<path d="M157.269 143.52C156.978 143.666 156.298 143.957 155.277 143.957C153.48 143.957 152.848 142.694 152.848 141.479C152.848 139.244 154.5 136.961 156.784 136.961C157.464 136.961 158.047 137.204 158.192 137.301L157.95 137.835C157.658 137.69 157.221 137.544 156.686 137.544C154.743 137.544 153.48 139.584 153.48 141.382C153.48 142.548 154.014 143.423 155.375 143.423C156.152 143.423 156.735 143.18 157.075 142.985L157.269 143.52Z" fill="white"/>
<path d="M162.905 143.423C162.565 143.666 161.885 143.957 160.865 143.957C159.164 143.957 158.533 142.694 158.533 141.333C158.533 139.342 160.039 136.961 162.031 136.961C163.245 136.961 163.78 137.738 163.78 138.516C163.78 140.313 161.593 140.702 159.261 140.653C159.164 140.993 159.213 141.819 159.358 142.305C159.601 143.083 160.233 143.471 160.962 143.471C161.788 143.471 162.371 143.18 162.711 142.985L162.905 143.423ZM161.933 137.495C160.719 137.495 159.699 138.758 159.358 140.07C161.35 140.119 163.148 139.827 163.148 138.516C163.148 137.835 162.662 137.495 161.933 137.495Z" fill="white"/>
<path d="M164.411 143.034C164.703 143.228 165.189 143.423 165.675 143.423C166.598 143.423 167.229 142.791 167.229 142.014C167.229 141.382 166.986 140.993 166.258 140.556C165.48 140.119 165.189 139.487 165.189 138.904C165.189 137.884 166.063 137.009 167.278 137.009C167.764 137.009 168.25 137.155 168.444 137.35L168.201 137.884C168.007 137.738 167.618 137.544 167.181 137.544C166.355 137.544 165.772 138.127 165.772 138.807C165.772 139.439 166.112 139.779 166.743 140.167C167.521 140.605 167.861 141.236 167.861 141.868C167.861 143.18 166.792 143.957 165.626 143.957C164.994 143.957 164.46 143.714 164.168 143.52L164.411 143.034Z" fill="white"/>
<path d="M169.27 143.034C169.561 143.228 170.047 143.423 170.533 143.423C171.456 143.423 172.088 142.791 172.088 142.014C172.088 141.382 171.845 140.993 171.116 140.556C170.339 140.119 170.047 139.487 170.047 138.904C170.047 137.884 170.922 137.009 172.136 137.009C172.622 137.009 173.108 137.155 173.302 137.35L173.059 137.884C172.865 137.738 172.476 137.544 172.039 137.544C171.213 137.544 170.63 138.127 170.63 138.807C170.63 139.439 170.97 139.779 171.602 140.167C172.379 140.605 172.719 141.236 172.719 141.868C172.719 143.18 171.65 143.957 170.484 143.957C169.853 143.957 169.318 143.714 169.027 143.52L169.27 143.034Z" fill="white"/>
<path d="M174.128 143.811L175.392 137.107H176.023L174.76 143.811H174.128ZM175.586 135.212C175.586 134.92 175.829 134.677 176.12 134.677C176.46 134.677 176.606 134.92 176.606 135.212C176.558 135.503 176.412 135.746 176.072 135.746C175.78 135.746 175.586 135.503 175.586 135.212Z" fill="white"/>
<path d="M179.521 135.358L179.181 137.107H180.882L180.784 137.641H179.084L178.355 141.528C178.258 141.965 178.209 142.305 178.209 142.742C178.209 143.18 178.452 143.471 178.89 143.471C179.133 143.471 179.278 143.423 179.424 143.423L179.473 143.909C179.278 143.957 179.035 144.006 178.744 144.006C177.869 144.006 177.529 143.374 177.529 142.791C177.529 142.402 177.578 141.965 177.675 141.528L178.404 137.69H177.383L177.481 137.155H178.501L178.792 135.6L179.521 135.358Z" fill="white"/>
<path d="M185.594 143.811C185.594 143.374 185.643 142.645 185.789 141.819H185.74C184.963 143.374 183.991 143.957 182.922 143.957C181.756 143.957 181.076 142.985 181.076 141.819C181.076 139.439 182.922 136.961 185.594 136.961C186.129 136.961 186.76 137.058 187.149 137.155L186.469 140.653C186.226 142.014 186.129 143.131 186.177 143.811H185.594ZM186.42 137.641C186.275 137.592 185.983 137.495 185.449 137.495C183.408 137.495 181.708 139.439 181.708 141.722C181.708 142.548 181.95 143.423 183.068 143.423C184.283 143.423 185.643 141.819 185.983 139.925L186.42 137.641Z" fill="white"/>
</svg>
