<svg width="108" height="40" viewBox="0 0 108 40" fill="none" xmlns="http://www.w3.org/2000/svg">
<path d="M18.2295 7.21939C17.2099 7.25029 14.0276 8.17717 11.3397 9.32032C8.65175 10.4635 4.94424 12.9969 4.57348 13.3368C4.20273 13.6766 4.07915 14.0165 4.69707 14.2019C5.31499 14.3873 12.9463 16.1174 14.6456 16.5809C16.3448 17.0134 17.7661 19.8558 17.8278 21.1535C17.8896 22.4511 15.9123 23.7796 14.8 24.4284C13.6878 25.1081 10.3819 26.9928 9.20788 27.0546C8.06473 27.1164 8.00294 27.0546 7.32322 26.7765C6.61262 26.4985 5.00603 25.5716 4.97513 24.861C4.94424 24.1504 5.90201 23.6869 6.48903 23.4089C7.07606 23.1308 12.8845 21.1226 13.3479 20.8445C13.8114 20.5664 13.6569 20.0103 13.1626 19.9176C12.6991 19.8249 9.36236 19.2379 7.53949 18.8054C5.71663 18.3728 0.0317811 17.6622 0.000885171 13.3677C-0.0300108 10.9269 0.742388 9.75286 3.18317 8.42434C5.59305 7.06491 10.0421 3.88263 15.8814 3.11023C19.6507 2.61589 21.5972 3.94442 22.524 5.30384C23.4509 6.66326 22.0606 7.65193 21.041 7.68283C20.0524 7.77552 19.3726 7.18849 18.2295 7.21939ZM32.8433 8.73329C28.3325 6.72506 25.3974 8.88777 23.9761 11.7302C22.246 15.1905 22.3695 19.4542 25.4591 21.5551C27.4983 22.9454 32.4416 23.4089 34.5426 19.6705C36.6744 15.9321 37.3541 10.7106 32.8433 8.73329ZM30.9586 16.6118C29.9699 18.1566 27.4983 19.1452 26.973 18.7127C26.2624 18.0948 26.6023 16.1483 27.6528 14.2328C28.6723 12.3172 31.1749 11.3903 31.8546 11.8847C32.5652 12.3481 31.7928 15.2832 30.9586 16.6118ZM55.0884 2.43052C55.0575 1.90529 54.7176 0.700345 52.1532 0.793032C49.5889 0.88572 46.4066 3.51188 44.1512 7.09581C41.8958 10.6488 40.4437 14.6653 40.5673 17.6622C40.6908 20.6591 43.2861 23.3162 46.7156 23.1926C50.145 23.0381 54.2851 19.0216 55.181 17.8785C56.077 16.7353 55.7372 15.5922 55.1502 15.0052C54.5631 14.4181 53.3891 14.2328 52.8638 14.9434C52.3386 15.654 51.4426 16.6427 49.5271 18.033C47.6115 19.4542 46.0976 19.8558 45.5724 19.5778C43.904 18.7127 45.3561 14.4182 47.4262 10.896C49.4962 7.37387 52.9565 4.50055 53.8834 3.82083C54.5322 3.2956 55.0884 2.92485 55.0884 2.43052ZM60.4642 12.5644C60.6805 14.7271 60.7732 17.1679 61.422 18.3419C62.0708 19.516 63.3067 20.2575 63.7701 20.2575C64.2336 20.2266 64.6043 19.5469 64.8824 18.2801C65.1604 17.0134 65.1604 12.9042 65.006 9.38211C64.8515 5.82907 62.8123 5.79818 61.7619 5.79818C60.7423 5.79818 59.8772 6.60147 60.0935 7.83731C60.3098 8.88777 60.248 10.3708 60.4642 12.5644ZM89.4446 18.1257C89.2593 17.1061 88.3942 14.4799 87.0966 10.9578C85.7989 7.40477 84.0996 4.19159 83.2655 2.5541C82.4313 0.916618 81.5971 -0.164742 79.3417 0.0206334C77.0863 0.206009 76.5301 1.41095 75.8195 2.89396C75.1089 4.37696 74.3056 5.92176 72.3592 11.2668C70.4127 16.6118 69.2387 20.7209 68.9297 21.7405C68.4354 23.4707 68.868 24.4902 70.1965 24.4284C71.525 24.3666 72.2356 23.2853 72.8535 21.586C73.4714 19.8867 74.9236 16.4264 74.9236 16.4264C74.9236 16.4264 76.3757 16.2719 79.0945 15.654C81.8133 15.0361 83.6362 14.4799 83.6362 14.4799C83.6362 14.4799 84.1923 16.7353 84.7176 18.1257C85.2428 19.516 86.5095 20.3193 87.9307 20.2575C89.352 20.1648 89.5991 19.1452 89.4446 18.1257ZM81.628 10.5562C81.0718 10.8033 80.5157 11.0505 79.0018 11.483C77.5497 11.9156 76.5302 12.2554 76.3139 12.3481C76.0976 12.4408 75.974 12.5335 76.0667 12.3172C76.0667 12.3172 78.4766 5.82907 78.6929 5.27294C78.8782 4.71682 79.2799 3.91352 79.836 4.74771C80.3921 5.5819 81.7207 9.01135 81.9987 9.59838C82.2459 10.1854 82.1532 10.309 81.628 10.5562ZM106.376 22.6056C107.117 22.1112 107.241 21.0608 106.777 20.2266C106.314 19.3924 105.109 19.4542 104.275 19.8249C103.441 20.1957 99.8257 21.6478 99.3622 21.8023C98.8988 21.9568 98.6825 21.586 98.6207 21.1844C98.5589 20.8136 98.3427 18.6818 98.1573 14.5108C97.9719 10.3708 97.9101 7.83731 97.8174 4.96398C97.7248 2.09066 97.2304 0.329592 95.0059 0.422279C92.7814 0.514967 93.4611 4.12979 93.5538 7.59014C93.6465 11.0505 94.2335 19.516 94.5425 22.7292C94.8514 25.9114 96.767 26.4058 98.2809 26.344C100.104 26.2513 105.634 23.0999 106.376 22.6056Z" fill="white"/>
<path d="M17.7352 36.1386C17.2717 36.1386 16.8392 36.1386 16.3757 36.1077V39.9388H15.5415V29.9594C16.2831 29.9285 17.1481 29.9285 17.9205 29.9285C20.1759 29.9285 21.0719 31.0717 21.0719 32.9872C21.0719 34.8719 19.9597 36.1386 17.7352 36.1386ZM17.797 30.6391C17.3644 30.6391 16.7774 30.6391 16.4066 30.67V35.3662C16.7156 35.3662 17.1172 35.3971 17.7661 35.3971C19.6198 35.3971 20.2068 34.4084 20.2068 33.0181C20.2068 31.5969 19.7434 30.6391 17.797 30.6391Z" fill="white"/>
<path d="M30.0318 39.9382L29.352 37.621H25.4592L24.8103 39.9382H23.9453L26.8804 29.9279H27.9617L30.8968 39.9382H30.0318ZM27.4056 30.8548L25.6445 36.9413H29.1667L27.4056 30.8548Z" fill="white"/>
<path d="M40.2583 39.9382L37.7866 35.0566H36.3036V39.9382H35.4695V29.9588C36.2419 29.9279 37.0451 29.9279 37.7558 29.9279C40.0112 29.9279 40.8145 30.8857 40.8145 32.3996C40.8145 33.7281 40.0421 34.7168 38.6208 34.9331L41.2161 39.9382H40.2583ZM37.7249 30.6385C37.2614 30.6385 36.7671 30.6385 36.3345 30.6694V34.3769H37.7866C39.3623 34.3769 39.9803 33.5736 39.9803 32.4923C39.9494 31.3491 39.5168 30.6385 37.7249 30.6385Z" fill="white"/>
<path d="M48.2295 30.6694V39.9382H47.3953V30.6694H44.8618V29.9279H50.7938V30.6694H48.2295Z" fill="white"/>
<path d="M60.2171 39.9382L55.8917 30.8548V39.9382H55.0884V29.9279H56.3242L60.5261 38.7951V29.9279H61.3294V39.9382H60.2171Z" fill="white"/>
<path d="M66.8288 39.9382V29.9279H71.2161V30.6385H67.6939V34.4078H70.9071V35.1184H67.6939V39.1967H71.2779V39.9073H66.8288V39.9382Z" fill="white"/>
<path d="M80.8865 39.9382L78.4148 35.0566H76.9318V39.9382H76.0976V29.9588C76.87 29.9279 77.6733 29.9279 78.3839 29.9279C80.6393 29.9279 81.4426 30.8857 81.4426 32.3996C81.4426 33.7281 80.6702 34.7168 79.249 34.9331L81.8443 39.9382H80.8865ZM78.353 30.6385C77.8896 30.6385 77.3952 30.6385 76.9627 30.6694V34.3769H78.4148C79.9905 34.3769 80.6084 33.5736 80.6084 32.4923C80.5775 31.3491 80.145 30.6385 78.353 30.6385Z" fill="white"/>
<path d="M88.6723 40C87.9308 40 87.0348 39.7837 86.2624 39.3203L86.5405 38.6715C87.2202 39.0113 87.869 39.2585 88.6723 39.2585C90.0008 39.2585 90.7114 38.5479 90.7114 37.4357C90.7114 34.8713 86.1697 35.2111 86.1697 32.3069C86.1697 30.8857 87.1584 29.8661 88.8886 29.8661C89.6918 29.8661 90.5569 30.1133 91.1749 30.4841L90.8659 31.0711C90.3407 30.8239 89.5683 30.5768 88.8886 30.5768C87.6218 30.5768 87.0039 31.2565 87.0039 32.2142C87.0039 34.6241 91.5456 34.2534 91.5456 37.343C91.5147 38.9804 90.4643 40 88.6723 40Z" fill="white"/>
</svg>
