<svg width="24" height="24" viewBox="0 0 24 24" fill="none" xmlns="http://www.w3.org/2000/svg">
<rect width="24" height="24" rx="3" fill="#E18560"/>
<path d="M17.8594 7.6808C18.0156 7.83705 18.1495 8.04911 18.2611 8.31696C18.3728 8.58482 18.4286 8.83036 18.4286 9.05357V18.6964C18.4286 18.9196 18.3504 19.1094 18.1942 19.2656C18.0379 19.4219 17.8482 19.5 17.625 19.5H6.37498C6.15177 19.5 5.96204 19.4219 5.80579 19.2656C5.64954 19.1094 5.57141 18.9196 5.57141 18.6964V5.30357C5.57141 5.08036 5.64954 4.89062 5.80579 4.73437C5.96204 4.57813 6.15177 4.5 6.37498 4.5H13.875C14.0982 4.5 14.3437 4.5558 14.6116 4.66741C14.8794 4.77902 15.0915 4.91295 15.2478 5.0692L17.8594 7.6808ZM14.486 5.82254C14.3501 5.68663 14.1428 5.83867 14.1428 6.03089V7.47576C14.1428 8.19923 14.7293 8.78571 15.4528 8.78571H16.8977C17.0899 8.78571 17.2419 8.57844 17.106 8.44252V8.44252L14.486 5.82254V5.82254ZM14.3571 18.4286C16.014 18.4286 17.3571 17.0854 17.3571 15.4286V12.8571C17.3571 11.2003 16.014 9.85714 14.3571 9.85714H13.875C13.6518 9.85714 13.462 9.77902 13.3058 9.62277C13.1495 9.46652 13.0714 9.27679 13.0714 9.05357V8.57143C13.0714 6.91458 11.7283 5.57143 10.0714 5.57143H9.64284C7.98598 5.57143 6.64284 6.91457 6.64284 8.57143V15.4286C6.64284 17.0854 7.98599 18.4286 9.64284 18.4286H14.3571ZM13.0547 13.4648V13.4648C13.4856 13.8044 14.0526 13.8854 14.6012 13.8761C14.6465 13.8754 14.6919 13.875 14.7371 13.875C15.5575 13.875 16.0513 14.0117 16.2187 14.2852C16.3049 14.4036 16.3131 14.5429 16.2434 14.7029C16.2383 14.7145 16.2361 14.7282 16.2271 14.7372V14.7372L16.2153 14.7489C16.2122 14.7521 16.2104 14.7564 16.2104 14.7609V14.7609C16.2104 14.7618 16.2103 14.7627 16.2101 14.7636C16.176 14.9748 15.978 15.0804 15.6161 15.0804C15.3482 15.0804 15.0273 15.0246 14.6534 14.9129C14.5691 14.8878 14.4852 14.8607 14.402 14.8318C13.8399 14.6368 13.2483 14.4965 12.6605 14.589C12.2022 14.6611 11.7656 14.7485 11.3507 14.8509C10.6541 15.0229 10.0994 15.515 9.69037 16.1045C9.11104 16.9396 8.6337 17.3571 8.25835 17.3571C8.17465 17.3571 8.09652 17.3376 8.02398 17.2985L7.88157 17.2273C7.84283 17.208 7.80668 17.1833 7.77286 17.1562V17.1562C7.71706 17.1004 7.70032 17 7.72264 16.8549C7.77286 16.6317 7.92911 16.3764 8.19139 16.089C8.45367 15.8016 8.82197 15.5324 9.2963 15.2812C9.37408 15.2313 9.43802 15.2476 9.48815 15.3304C9.48859 15.3311 9.48933 15.332 9.48992 15.3326V15.3326C9.49726 15.3402 9.51939 15.3423 9.52488 15.3333C9.80899 14.8662 10.1011 14.3271 10.4012 13.716C10.6347 13.249 10.8344 12.7925 11.0003 12.3466C11.1979 11.8154 11.1697 11.2371 11.0776 10.6778C11.0504 10.5127 11.03 10.3494 11.0164 10.1878C10.9802 9.7553 10.9983 9.39955 11.0709 9.12054C11.1322 8.89732 11.2494 8.78571 11.4224 8.78571H11.6066C11.7349 8.78571 11.8326 8.82757 11.8995 8.91127C12 9.02846 12.0251 9.21819 11.9749 9.48047C11.974 9.48295 11.9732 9.48536 11.9724 9.48772C11.9587 9.52691 11.9498 9.57287 11.9498 9.6144V9.6144V9.86551C11.9446 10.1818 11.9335 10.4661 11.9166 10.7185C11.8831 11.2157 11.9009 11.7269 12.1121 12.1782C12.3739 12.7379 12.6881 13.1668 13.0547 13.4648ZM8.52351 16.441C8.40653 16.5937 8.52697 16.7039 8.65789 16.5629C8.70097 16.5166 8.7453 16.466 8.79088 16.4113C8.91662 16.2603 8.77302 16.1345 8.64758 16.2857V16.2857C8.6031 16.3393 8.56174 16.3911 8.52351 16.441ZM11.5647 9.1993C11.5647 9.20257 11.5642 9.20577 11.5631 9.20885C11.5026 9.3817 11.4839 9.62633 11.5071 9.94273C11.5116 10.0038 11.5956 10.0083 11.6054 9.9479V9.9479C11.6059 9.9451 11.6066 9.93943 11.6068 9.9366C11.609 9.90899 11.6285 9.79043 11.6652 9.58092C11.6694 9.56386 11.6769 9.54681 11.6877 9.52976C11.6936 9.52044 11.6903 9.50824 11.6903 9.49721V9.49721C11.6903 9.49163 11.6889 9.48744 11.6861 9.48465C11.6833 9.48186 11.6819 9.47768 11.6819 9.4721C11.6766 9.35597 11.6439 9.25981 11.5837 9.18362C11.5801 9.17913 11.5705 9.18095 11.5668 9.18528V9.18528C11.5657 9.18651 11.5647 9.18842 11.5647 9.19005V9.1993ZM10.9034 14.0424C10.7786 14.2755 11.0183 14.5501 11.2698 14.4685C11.7552 14.311 12.2557 14.1828 12.7714 14.0839C12.8138 14.0757 12.8293 14.006 12.7952 13.9796V13.9796C12.7338 13.9322 12.6892 13.8945 12.6613 13.8666C12.6517 13.8582 12.6422 13.8497 12.6327 13.8411C12.1605 13.4159 11.1896 13.4751 10.9034 14.0424V14.0424V14.0424ZM15.9341 14.6032C15.9064 14.5755 15.8678 14.5507 15.8181 14.5287C15.6234 14.4426 15.5873 14.6367 15.8002 14.6367V14.6367C15.8531 14.6367 15.8932 14.6354 15.9205 14.6329C15.9385 14.6312 15.9469 14.616 15.9341 14.6032V14.6032Z" fill="white"/>
</svg>
