<svg xmlns="http://www.w3.org/2000/svg" width="100%" height="100%" fill="none" viewBox="0 0 224 224"><rect width="224" height="224" fill="#E18560" rx="20"/><path fill="#fff" d="M166.688 71.688c1.458 1.458 2.708 3.437 3.75 5.937 1.041 2.5 1.562 4.792 1.562 6.875v90c0 2.083-.729 3.854-2.188 5.312-1.458 1.459-3.229 2.188-5.312 2.188h-105c-2.083 0-3.854-.729-5.313-2.188C52.73 178.354 52 176.583 52 174.5v-125c0-2.083.73-3.854 2.188-5.313C55.645 42.73 57.416 42 59.5 42h70c2.083 0 4.375.52 6.875 1.563 2.5 1.041 4.479 2.291 5.937 3.75l24.376 24.374zM132 52.624V82h29.375c-.521-1.51-1.094-2.578-1.719-3.203l-24.453-24.453c-.625-.625-1.693-1.198-3.203-1.719zM162 172V92h-32.5c-2.083 0-3.854-.73-5.312-2.188C122.729 88.355 122 86.584 122 84.5V52H62v120h100zm-40.156-46.328c1.718 1.354 3.906 2.812 6.562 4.375a77.443 77.443 0 0 1 9.141-.547c7.656 0 12.265 1.276 13.828 3.828.833 1.146.885 2.5.156 4.063 0 .052-.026.104-.078.156l-.156.156v.078c-.313 1.979-2.162 2.969-5.547 2.969-2.5 0-5.495-.521-8.984-1.562a56.982 56.982 0 0 1-10.157-4.141c-11.51 1.25-21.718 3.411-30.625 6.484C88.016 155.177 81.714 162 77.078 162c-.781 0-1.51-.182-2.187-.547l-1.875-.937a8.177 8.177 0 0 0-.47-.391c-.52-.521-.676-1.458-.468-2.813.469-2.083 1.927-4.466 4.375-7.148 2.448-2.682 5.885-5.195 10.313-7.539.729-.469 1.328-.313 1.796.469.105.104.157.208.157.312 2.708-4.427 5.495-9.557 8.36-15.39 3.541-7.084 6.249-13.907 8.124-20.469-1.25-4.271-2.044-8.425-2.383-12.461-.338-4.037-.169-7.357.508-9.961.573-2.083 1.667-3.125 3.281-3.125h1.719c1.198 0 2.11.39 2.734 1.172.938 1.094 1.172 2.865.704 5.312-.105.313-.209.521-.313.625.052.157.078.365.078.625v2.344c-.104 6.406-.469 11.406-1.093 15 2.864 8.542 6.666 14.74 11.406 18.594zm-45 32.109c2.708-1.25 6.276-5.364 10.703-12.343-2.656 2.083-4.935 4.27-6.836 6.562-1.901 2.292-3.19 4.219-3.867 5.781zm31.094-71.875c-.782 2.188-.834 5.625-.157 10.313.052-.365.235-1.51.547-3.438 0-.156.182-1.276.547-3.36.052-.208.156-.416.313-.624-.053-.052-.079-.104-.079-.156 0-.053-.013-.092-.039-.118-.026-.026-.039-.065-.039-.117-.052-1.146-.39-2.083-1.015-2.812 0 .052-.026.104-.078.156v.156zm-9.688 51.641c7.031-2.813 14.427-4.922 22.188-6.328-.105-.052-.443-.3-1.016-.742-.573-.443-.99-.795-1.25-1.055-3.958-3.49-7.266-8.073-9.922-13.75-1.406 4.479-3.568 9.609-6.484 15.39a534.848 534.848 0 0 1-3.516 6.485zm50.469-1.25c-1.25-1.25-4.896-1.875-10.938-1.875 3.959 1.458 7.188 2.187 9.688 2.187.729 0 1.198-.026 1.406-.078 0-.052-.052-.13-.156-.234z"/></svg>