<svg width="22" height="21" viewBox="0 0 22 21" fill="none" xmlns="http://www.w3.org/2000/svg">
<rect width="22" height="21" rx="6" fill="white"/>
<path d="M12.4864 14.732C13.7464 14.732 14.8084 14.234 15.6724 13.238L17.5264 14.966C16.9264 15.698 16.1824 16.256 15.2944 16.64C14.4184 17.024 13.4344 17.216 12.3424 17.216C11.2984 17.216 10.3264 17.03 9.42638 16.658C8.53838 16.286 7.78238 15.758 7.15838 15.074C6.53438 14.39 6.08438 13.598 5.80838 12.698H3.77438V11.186H5.53838C5.52638 11.078 5.52038 10.916 5.52038 10.7C5.52038 10.484 5.52638 10.322 5.53838 10.214H3.77438V8.702H5.80838C6.08438 7.802 6.53438 7.01 7.15838 6.326C7.78238 5.642 8.53838 5.114 9.42638 4.742C10.3264 4.37 11.2984 4.184 12.3424 4.184C13.4344 4.184 14.4184 4.376 15.2944 4.76C16.1824 5.144 16.9264 5.696 17.5264 6.416L15.6724 8.144C14.7964 7.16 13.7344 6.668 12.4864 6.668C11.6944 6.668 10.9864 6.848 10.3624 7.208C9.73838 7.568 9.25838 8.066 8.92238 8.702H13.4764V10.214H8.47238C8.46038 10.322 8.45438 10.484 8.45438 10.7C8.45438 10.916 8.46038 11.078 8.47238 11.186H13.4764V12.698H8.92238C9.25838 13.334 9.73838 13.832 10.3624 14.192C10.9864 14.552 11.6944 14.732 12.4864 14.732Z" fill="#6B6B6B"/>
</svg>
