<svg width="18" height="18" viewBox="0 0 18 18" fill="none" xmlns="http://www.w3.org/2000/svg">
<path d="M14 0H13V5H14V0ZM12 2H10V1H12V0H9V3H11V4H9V5H12V2ZM15 0V5H16V3H18V0H15ZM17 2H16V1H17V2ZM17 12.5C15.75 12.5 14.55 12.3 13.43 11.93C13.08 11.82 12.69 11.9 12.42 12.17L10.22 14.37C7.39 12.93 5.07 10.62 3.63 7.78L5.83 5.57C6.1 5.31 6.18 4.92 6.07 4.57C5.7 3.45 5.5 2.25 5.5 1C5.5 0.45 5.05 0 4.5 0H1C0.45 0 0 0.45 0 1C0 10.39 7.61 18 17 18C17.55 18 18 17.55 18 17V13.5C18 12.95 17.55 12.5 17 12.5Z" fill="white"/>
</svg>
