<svg width="24" height="24" viewBox="0 0 24 24" fill="none" xmlns="http://www.w3.org/2000/svg">
<rect width="24" height="24" rx="2" fill="#E18560"/>
<g clip-path="url(#clip0)">
<path fill-rule="evenodd" clip-rule="evenodd" d="M18.8526 8.253L16.1221 5.0865L15.5821 4.4595H9.13107C8.26507 4.4595 7.56458 5.161 7.56458 6.0275V8.02H8.53557L8.53507 6.409C8.53607 5.9215 8.92807 5.527 9.41407 5.527L14.9311 5.522V8.136C14.9321 9.1095 15.7186 9.8975 16.6931 9.8975H18.6026L18.5086 17.438C18.5071 17.923 18.1136 18.3145 17.6291 18.3185L9.34407 18.3145C8.90057 18.3145 8.54357 17.8795 8.54157 17.3435V16.705H7.56908V17.657C7.56908 18.613 8.21007 19.391 8.99707 19.391L17.9126 19.389C18.7786 19.389 19.4811 18.684 19.4811 17.8195V8.983L18.8526 8.253Z" fill="white"/>
<path d="M14.6115 17.191H4.5V7.534H14.6115V17.191ZM5.4715 16.219H13.638V8.506H5.4715" fill="white"/>
<path d="M12.3649 14.911H10.6624L9.50045 13.269L8.28045 14.911H6.56995L8.69195 12.243L6.97845 9.9085H8.70595L9.50795 11.1775L10.3629 9.9085H12.1209L10.3244 12.243L12.3649 14.911Z" fill="white"/>
</g>
<defs>
<clipPath id="clip0">
<rect x="4.5" y="4.5" width="15" height="15" rx="2" fill="white"/>
</clipPath>
</defs>
</svg>
