<svg xmlns="http://www.w3.org/2000/svg" width="100%" height="100%" fill="none" viewBox="0 0 224 224"><rect width="224" height="224" fill="#E18560" rx="20"/><g fill="#fff" clip-path="url(#clip0)"><path fill-rule="evenodd" d="M175.957 77.028l-25.485-29.554-5.04-5.852h-60.21c-8.082 0-14.62 6.547-14.62 14.635v18.596h9.063l-.005-15.036c.01-4.55 3.668-8.232 8.204-8.232l51.492-.046v24.397c.009 9.086 7.35 16.44 16.445 16.44h17.822l-.877 70.379c-.014 4.526-3.687 8.18-8.209 8.218l-77.326-.038c-4.14 0-7.472-4.06-7.49-9.062v-5.96h-9.077v8.886c0 8.922 5.983 16.184 13.328 16.184l83.211-.019c8.083 0 14.64-6.58 14.64-14.649V83.841l-5.866-6.813z" clip-rule="evenodd"/><path d="M136.374 160.449H42V70.317h94.374v90.132zm-85.307-9.072h76.221V79.389h-76.22"/><path d="M115.407 139.169h-15.89L88.67 123.844l-11.386 15.325H61.32l19.805-24.901-15.992-21.789h16.123l7.485 11.844 7.98-11.844h16.408l-16.767 21.789 19.045 24.901z"/></g><defs><clipPath id="clip0"><path fill="#fff" d="M0 0h140v140H0z" transform="translate(42 42)"/></clipPath></defs></svg>